<?xml version="1.0" standalone="no"?>
<!DOCTYPE svg PUBLIC "-//W3C//DTD SVG 20010904//EN"
 "http://www.w3.org/TR/2001/REC-SVG-20010904/DTD/svg10.dtd">
<svg version="1.0" xmlns="http://www.w3.org/2000/svg"
 width="1080.000000pt" height="1080.000000pt" viewBox="0 0 1080.000000 1080.000000"
 preserveAspectRatio="xMidYMid meet">

<g transform="translate(0.000000,1080.000000) scale(0.100000,-0.100000)"
fill="#000000" stroke="none">
<path d="M4887 9060 c-111 -28 -216 -118 -271 -233 -19 -40 -38 -89 -42 -111
-4 -21 -16 -46 -28 -55 -107 -82 -155 -177 -141 -280 4 -31 7 -75 7 -98 -1
-24 -3 -80 -4 -125 -3 -76 0 -88 27 -137 16 -30 46 -67 67 -84 l37 -29 -24
-37 c-76 -116 -52 -272 57 -365 45 -39 66 -46 192 -70 197 -38 372 -177 438
-350 13 -32 29 -61 36 -63 7 -3 46 11 86 30 173 86 280 276 262 468 l-6 66 50
5 c64 6 119 43 149 100 l24 44 76 -76 c46 -46 100 -88 136 -107 117 -60 257
-78 380 -48 82 20 81 20 83 -27 4 -71 39 -182 79 -249 170 -292 534 -340 783
-103 l56 53 59 -30 c52 -27 68 -30 118 -26 65 6 134 41 166 86 18 25 27 29 93
34 84 6 149 31 201 76 36 32 78 96 92 140 l7 24 -34 -26 c-82 -63 -191 -74
-304 -31 -266 100 -516 57 -734 -127 -26 -22 -48 -39 -51 -39 -2 0 -3 17 -1
38 5 50 -22 173 -50 229 -33 68 -118 155 -186 191 -68 36 -134 53 -223 55
l-62 2 -13 52 c-52 202 -261 303 -447 215 l-67 -31 -49 34 c-59 39 -128 52
-190 35 -49 -13 -113 -67 -131 -110 -16 -38 -24 -38 -49 3 -22 36 -97 94 -154
120 -60 27 -144 32 -211 13 -143 -42 -237 -211 -207 -373 7 -36 19 -80 28 -97
15 -29 15 -30 -1 -17 -24 20 -66 105 -82 166 -36 133 9 305 99 381 126 106
322 89 481 -41 l59 -47 25 32 c71 91 224 104 325 27 l33 -25 60 29 c149 73
296 55 418 -52 44 -39 116 -162 116 -198 0 -14 18 -19 92 -29 227 -28 390
-182 435 -409 l16 -82 51 45 c133 120 343 165 534 115 69 -18 72 -18 72 -1 0
32 -65 114 -114 145 -60 37 -151 46 -222 21 -26 -9 -67 -16 -92 -16 -61 0
-106 44 -116 115 -18 118 -107 205 -211 205 -35 0 -35 0 -35 45 0 86 -61 165
-145 187 l-43 12 19 44 c38 88 20 189 -49 274 -16 21 -33 53 -36 71 -8 42 -56
100 -100 121 -43 20 -115 21 -162 1 -34 -14 -36 -17 -29 -51 19 -102 -1 -227
-46 -285 -18 -24 -19 -24 -19 51 -1 177 -80 313 -224 383 -92 45 -234 46 -346
2 -12 -4 -21 6 -34 36 -60 136 -217 200 -341 138 -25 -13 -44 -25 -43 -28 2
-3 20 -40 42 -83 41 -83 55 -164 42 -253 -9 -56 -15 -53 -27 12 -12 63 -61
167 -105 220 -48 58 -131 120 -193 143 -60 23 -162 33 -214 20z"/>
<path d="M4277 8272 c-34 -35 -47 -72 -47 -130 1 -81 55 -165 121 -191 l27
-10 -34 57 c-19 31 -39 72 -44 92 -13 45 -13 126 0 169 5 19 8 36 7 38 -2 1
-15 -10 -30 -25z"/>
<path d="M4270 7422 c0 -47 36 -134 74 -178 19 -22 60 -53 92 -68 56 -28 67
-30 244 -36 205 -8 264 -21 373 -85 31 -19 57 -30 57 -26 0 18 -111 111 -166
139 -78 39 -137 51 -265 57 -102 4 -168 19 -233 52 -38 20 -112 89 -148 137
l-28 39 0 -31z"/>
<path d="M5646 7245 c-49 -98 -124 -176 -221 -228 l-70 -38 55 7 c98 12 182
53 233 114 38 44 62 132 51 183 l-9 41 -39 -79z"/>
<path d="M4620 6635 c-173 -173 -318 -314 -322 -313 -4 2 -34 30 -68 62 l-62
59 -727 -729 c-792 -793 -1571 -1589 -1571 -1604 0 -7 1304 -10 3570 -10 1964
0 3570 3 3570 8 0 4 -411 418 -912 919 l-913 913 -97 -97 -98 -98 -525 525
-525 525 -88 -88 -87 -87 -135 135 -135 135 -120 -120 c-66 -66 -125 -120
-132 -120 -6 0 -22 12 -35 28 -14 15 -41 42 -60 61 l-36 33 -158 -198 c-137
-172 -436 -549 -708 -890 l-81 -102 -5 213 -5 213 -310 -250 c-170 -137 -337
-270 -370 -295 -33 -25 111 126 320 335 l380 382 62 -62 63 -63 381 382 382
381 -19 23 c-10 13 -39 43 -64 66 l-46 42 -314 -314z m1308 -252 l72 72 478
-480 c696 -701 1232 -1244 1192 -1209 -204 180 -1496 1327 -1563 1387 -48 44
-90 78 -92 75 -2 -2 95 -222 216 -488 266 -586 259 -570 254 -570 -3 0 -145
193 -628 855 -121 165 -224 305 -230 310 -6 7 -7 -28 -3 -105 3 -63 9 -162 11
-220 l6 -105 -58 157 c-32 86 -61 159 -64 163 -4 3 -120 -215 -258 -484 -228
-444 -312 -603 -298 -561 3 8 92 224 197 480 105 256 227 552 271 658 l79 194
-35 100 c-19 55 -35 103 -35 106 0 4 93 -87 208 -201 l207 -207 73 73z"/>
<path d="M1870 3280 l0 -600 245 0 245 0 0 110 0 110 -125 0 -125 0 0 490 0
490 -120 0 -120 0 0 -600z"/>
<path d="M2547 3638 c-20 -134 -62 -402 -92 -596 -30 -195 -55 -356 -55 -358
0 -2 53 -4 119 -4 l118 0 18 135 17 135 84 0 c46 0 84 -3 85 -7 0 -5 8 -64 17
-133 l17 -125 118 -3 c108 -2 117 -1 117 16 0 10 -23 162 -50 338 -66 417
-130 832 -130 839 0 3 -78 5 -173 5 l-172 0 -38 -242z m223 -17 c0 -32 9 -138
20 -237 11 -98 20 -185 20 -191 0 -9 -18 -13 -56 -13 -53 0 -56 1 -51 23 3 12
16 126 28 254 21 219 39 293 39 164z"/>
<path d="M3430 3770 l0 -109 154 -3 154 -3 -159 -420 c-146 -388 -158 -425
-159 -487 l0 -68 305 0 305 0 0 110 0 110 -165 0 c-98 0 -165 4 -165 10 0 5 4
19 10 32 5 13 77 202 160 421 132 351 150 405 150 457 l0 60 -295 0 -295 0 0
-110z"/>
<path d="M4112 3378 l3 -503 31 -55 c56 -98 152 -150 279 -150 127 0 223 52
279 150 l31 55 3 503 3 502 -121 0 -120 0 0 -468 c0 -460 0 -469 -20 -487 -12
-11 -36 -19 -55 -19 -19 0 -43 8 -55 19 -20 18 -20 27 -20 487 l0 468 -120 0
-121 0 3 -502z"/>
<path d="M4850 3280 l0 -600 245 0 245 0 0 110 0 110 -125 0 -125 0 0 490 0
490 -120 0 -120 0 0 -600z"/>
<path d="M5430 3280 l0 -600 120 0 120 0 0 600 0 600 -120 0 -120 0 0 -600z"/>
<path d="M5920 3874 c0 -4 -40 -265 -90 -581 -49 -316 -90 -583 -90 -594 0
-18 8 -19 118 -19 l119 0 12 113 c19 172 9 157 106 157 l82 0 18 -135 17 -135
120 0 119 0 -6 43 c-4 23 -46 292 -94 597 l-87 555 -172 3 c-95 1 -172 0 -172
-4z m184 -266 c8 -90 33 -330 41 -390 l5 -38 -55 0 c-65 0 -61 -23 -35 210 11
96 20 203 20 237 0 91 16 78 24 -19z"/>
<path d="M6520 3280 l0 -600 120 0 120 0 0 195 c0 215 -17 404 -60 673 -15 97
-26 179 -24 181 9 10 15 -12 39 -145 43 -233 135 -591 216 -841 l21 -63 129 0
129 0 0 600 0 600 -120 0 -120 0 0 -142 c0 -205 16 -402 50 -637 16 -114 32
-221 36 -238 4 -19 2 -33 -3 -33 -5 0 -18 48 -27 108 -38 234 -114 555 -207
875 l-20 67 -139 0 -140 0 0 -600z"/>
<path d="M7330 3280 l0 -600 120 0 120 0 0 600 0 600 -120 0 -120 0 0 -600z"/>
<path d="M7650 3770 l0 -110 90 0 90 0 0 -490 0 -490 120 0 120 0 0 490 0 490
95 0 95 0 0 110 0 110 -305 0 -305 0 0 -110z"/>
<path d="M8366 3853 c-3 -16 -44 -275 -91 -578 -47 -302 -87 -560 -90 -572 -5
-23 -5 -23 114 -23 l120 0 6 33 c3 17 11 77 18 132 l12 100 85 0 85 0 12 -90
c6 -49 14 -109 18 -132 l6 -43 120 0 c119 0 119 0 114 23 -2 12 -43 272 -90
577 -47 305 -88 565 -90 578 -5 22 -7 22 -174 22 l-169 0 -6 -27z m184 -210
c0 -27 9 -127 20 -223 11 -96 20 -190 20 -207 0 -33 0 -33 -50 -33 -60 0 -58
-18 -30 230 11 96 20 199 20 228 0 28 5 52 10 52 6 0 10 -21 10 -47z"/>
</g>
</svg>
